<svg xmlns="http://www.w3.org/2000/svg" width="84.875" height="84.875" viewBox="0 0 84.875 84.875"><g transform="translate(2 1.049)"><rect width="84.875" height="84.875" transform="translate(-2 -1.049)" fill="rgba(255,255,255,0)"></rect><g transform="translate(35.671 -0.756)"><path d="M217.367,56.485a2.008,2.008,0,0,0,.938.2,42.176,42.176,0,0,0,4.666-1.007,9.069,9.069,0,0,1-1.161-1.894s-.2.637-.474.66c-.677.057-.684-.572-.779-.883s-2.325-1.866-2.161-2.455,1.937-.276,1.937-.276-.88-.376-1.537-2.451.093-3.412,1.071-4.787,3.974-2.293,6.064-1.969a3.967,3.967,0,0,1,3.112,3.07,17.715,17.715,0,0,1,.285,2.839c.58-1.317,1.862-.966,1.949-.558s-.574,2.231-.41,2.955.38,1.061.03,1.211a2.6,2.6,0,0,1-1.146-.042,8.017,8.017,0,0,1,.209,1.466,16.11,16.11,0,0,1-.633,1.881,6.785,6.785,0,0,0,2.751-.661,2.755,2.755,0,0,0,1.145-1.777s-1.592-10.218-1.73-11.084-1-1.615-3.1-1.814-8.628,1.557-11.193,1.786-2.241,1.951-2.241,1.951l2.056,12.98C217.054,56.26,217.045,56.27,217.367,56.485Z" transform="translate(-214.946 -39.093)" fill="#fff"></path></g><g transform="translate(18.446 14.37)"><g transform="translate(0 2.169)"><path d="M211.974,74.754a15.37,15.37,0,0,1-.034-4.579c.121-1.019,2.319-7.579,3.262-8.85s8.676-3.524,8.676-3.524-.232-.461-.523-.929c-4.28.791-8.711,1.642-11.359,2.212-4.055.873-4.126,4.083-4.126,4.083v13.77c0,.05,0,.1,0,.149.01.211-.014.881-.034,1.5l-.052.02c-.519.193-3.924.651-4.485.874a10.215,10.215,0,0,0-4.7,2.636,4.6,4.6,0,0,0-.794,5.485,2.905,2.905,0,0,0,.612.808c2.36,2.208,6.2,2,6.2,2,7.169.006,6.964-7.037,6.964-7.037a18.974,18.974,0,0,1,.262-4.251,21.887,21.887,0,0,0,.013-3.164C211.9,75.571,211.938,75.163,211.974,74.754Z" transform="translate(-197.239 -56.872)" fill="#fff"></path></g><g transform="translate(26.917)"><path d="M242.171,58.026c-.111-4.043-4.728-3.425-6.45-3.234-.615.065-2.948.461-5.969,1a1.234,1.234,0,0,0,.288.946c.417.3,2.265.479,2.613.872s2.874,1.042,3.625,1.4,1.649,2.15,1.828,2.687.72.824,1.075,1.5a19.687,19.687,0,0,1,.609,3.941c.071.609.38,1.41.093,1.911a1.194,1.194,0,0,0-.17,1.339c.251.681.18.755.062,2.195-.171,2.093-4.077,4.206-4.077,4.206l-3.015.167a11.654,11.654,0,0,1-1.275.385,12.281,12.281,0,0,0-4.874,2.732c-2.46,2.057-1.524,5.013-1.029,5.993a3.143,3.143,0,0,0,.659.869c2.534,2.373,6.664,2.151,6.664,2.151,9.622-.238,9.343-7.562,9.343-7.562S242.282,62.069,242.171,58.026Z" transform="translate(-224.91 -54.642)" fill="#fff"></path></g></g><g transform="translate(36.553 13.206)"><g transform="translate(5.92 10.925)"><path d="M223.2,66.827a1.411,1.411,0,0,1,.665-.9c.13-.075.395-.2.451-.318.19-.41-.18-.951-.583-.814a3.8,3.8,0,0,0-1.433.73,3.814,3.814,0,0,0-.265,1.109" transform="translate(-221.942 -64.678)" fill="#080909"></path><path d="M223.286,66.841l-.183-.033a1.5,1.5,0,0,1,.713-.969l.085-.047a.989.989,0,0,0,.328-.23.541.541,0,0,0-.1-.569.35.35,0,0,0-.368-.119,3.566,3.566,0,0,0-1.386.7,3.553,3.553,0,0,0-.246,1.065l-.188-.019a3.673,3.673,0,0,1,.28-1.151A3.966,3.966,0,0,1,223.7,64.7a.524.524,0,0,1,.565.169.724.724,0,0,1,.133.774.954.954,0,0,1-.41.315L223.9,66A1.323,1.323,0,0,0,223.286,66.841Z" transform="translate(-221.939 -64.676)" fill="#fff"></path></g><path d="M227.242,54.2s-.132-.94-1.182-.444c0,0-3.76,8.607-4.036,9.089s-2.5,6.442-2.861,7.376-3.069,6.839-3.134,6.923.425.517.714.518a2.028,2.028,0,0,0,.714-.217s2.305-6.2,2.56-6.9,3.249-7.217,3.583-7.808,2.263-5.151,2.626-6.018S227.242,54.2,227.242,54.2Z" transform="translate(-215.858 -53.45)" fill="#080909"></path><path d="M216.866,77.813a.83.83,0,0,1-.13.01,1.267,1.267,0,0,1-.851-.547.21.21,0,0,1,.007-.229c.1-.171,2.754-5.957,3.114-6.886.086-.222.277-.726.521-1.373,1.08-2.856,2.152-5.673,2.352-6.026.269-.472,3.991-8.989,4.028-9.076l.024-.055.054-.026a1.082,1.082,0,0,1,.989-.073.918.918,0,0,1,.42.638l.006.043-.016.04c0,.018-.66,1.661-1.018,2.517-.367.883-2.293,5.436-2.632,6.038-.352.625-3.323,7.1-3.572,7.785s-2.539,6.844-2.56,6.907l-.022.058-.056.028a2.387,2.387,0,0,1-.658.228Zm-.673-.656a1.049,1.049,0,0,0,.545.34,1.69,1.69,0,0,0,.585-.172c.239-.645,2.3-6.188,2.539-6.843.25-.69,3.239-7.2,3.594-7.834.317-.56,2.172-4.938,2.616-6,.322-.776.891-2.2,1-2.469a.564.564,0,0,0-.249-.361.743.743,0,0,0-.641.055c-.354.81-3.748,8.578-4.018,9.05-.2.36-1.587,4.017-2.33,5.981-.245.648-.436,1.153-.522,1.375-.329.843-2.765,6.172-3.117,6.882Zm-.022.05-.017.032A.167.167,0,0,0,216.17,77.207Z" transform="translate(-215.854 -53.445)" fill="#fff"></path><g transform="translate(8.67 23.526)"><path d="M224.766,77.63" transform="translate(-224.766 -77.63)" fill="none" stroke="#090a0a" stroke-miterlimit="10" stroke-width="0.257"></path></g><g transform="translate(3.891 9.399)"><path d="M220.053,64.238a.588.588,0,0,1,.142-.82.573.573,0,0,1,.1-.056,2.162,2.162,0,0,1,2.088.243c.257.374.319.831-.238.975S221.154,64.18,220.053,64.238Z" transform="translate(-219.856 -63.11)" fill="#080909"></path><path d="M222.071,64.687a1.542,1.542,0,0,1-.738-.138,3,3,0,0,0-1.278-.221l-.054,0-.029-.046a.8.8,0,0,1-.1-.58.682.682,0,0,1,.381-.429,2.217,2.217,0,0,1,2.207.274.85.85,0,0,1,.172.757.615.615,0,0,1-.464.36A.784.784,0,0,1,222.071,64.687Zm-1.968-.546a3.207,3.207,0,0,1,1.288.233,1.228,1.228,0,0,0,.725.114.441.441,0,0,0,.337-.245.682.682,0,0,0-.148-.587,2.107,2.107,0,0,0-1.969-.215.514.514,0,0,0-.287.308A.581.581,0,0,0,220.1,64.141Z" transform="translate(-219.853 -63.108)" fill="#fff"></path></g><g transform="translate(5.524 7.656)"><path d="M221.68,62.155a.435.435,0,0,1,.107-.605.538.538,0,0,1,.073-.041,1.6,1.6,0,0,1,1.54.18c.19.274.237.612-.176.718S222.493,62.112,221.68,62.155Z" transform="translate(-221.535 -61.318)" fill="#080909"></path><path d="M223.167,62.485a1.142,1.142,0,0,1-.542-.1,2.222,2.222,0,0,0-.944-.162l-.043,0-.018-.034a.6.6,0,0,1-.076-.43.508.508,0,0,1,.282-.314,1.635,1.635,0,0,1,1.626.2.624.624,0,0,1,.127.558.452.452,0,0,1-.342.265A.576.576,0,0,1,223.167,62.485Zm-1.449-.4a2.386,2.386,0,0,1,.949.172.888.888,0,0,0,.534.085.325.325,0,0,0,.248-.181.5.5,0,0,0-.109-.433,1.552,1.552,0,0,0-1.451-.157.373.373,0,0,0-.211.228.429.429,0,0,0,.041.286Z" transform="translate(-221.533 -61.316)" fill="#fff"></path></g><g transform="translate(4.439 8.35)"><path d="M220.616,63.132a.589.589,0,0,1,.144-.82.563.563,0,0,1,.1-.056,3.292,3.292,0,0,1,2.6.341c.256.374.318.831-.239.975S221.717,63.071,220.616,63.132Z" transform="translate(-220.42 -62.031)" fill="#080909"></path><path d="M223.164,63.675a2.54,2.54,0,0,1-.994-.183,4.465,4.465,0,0,0-1.552-.27l-.053,0-.03-.046a.8.8,0,0,1-.1-.58.689.689,0,0,1,.382-.429,3.323,3.323,0,0,1,2.72.372.849.849,0,0,1,.173.757.614.614,0,0,1-.465.36A.72.72,0,0,1,223.164,63.675Zm-2.5-.641a4.71,4.71,0,0,1,1.559.281,2.1,2.1,0,0,0,.973.163.446.446,0,0,0,.338-.245.688.688,0,0,0-.149-.588,3.307,3.307,0,0,0-2.488-.31.51.51,0,0,0-.287.309.578.578,0,0,0,.054.39Z" transform="translate(-220.417 -62.029)" fill="#fff"></path></g><g transform="translate(3.968 10.528)"><path d="M221.679,65.2a.428.428,0,0,0,.151-.445,1.773,1.773,0,0,0-1.539-.4c-.571.212-.208.935-.208.935a1.25,1.25,0,0,0,1.014.523c.066,0-.328-.493-.259-.491a2.065,2.065,0,0,0,.841-.124Z" transform="translate(-219.934 -64.269)" fill="#080909"></path><path d="M221.129,65.85l-.032,0a1.283,1.283,0,0,1-1.052-.548,1,1,0,0,1-.081-.709.5.5,0,0,1,.312-.288,1.891,1.891,0,0,1,1.385.236c.132.078.2.142.213.2a.466.466,0,0,1-.173.491h0a1.894,1.894,0,0,1-.811.126c.026.048.078.127.116.182.13.2.156.242.136.284Zm-.656-1.5a.84.84,0,0,0-.167.041.423.423,0,0,0-.261.24.93.93,0,0,0,.075.63,1.224,1.224,0,0,0,.92.5c-.026-.047-.075-.122-.112-.174-.131-.2-.161-.252-.14-.292l.015-.029.034,0a1.941,1.941,0,0,0,.819-.115h0a.386.386,0,0,0,.13-.4c0-.018-.073-.087-.249-.176A1.97,1.97,0,0,0,220.473,64.351Z" transform="translate(-219.933 -64.268)" fill="#fff"></path></g><g transform="translate(2.174 12.12)"><path d="M232.774,74.71s-1.521-3.544-3.691-4.275l-.752.089s-1.837-1.075-2.571-1.658-2.866-2.319-3.464-2.623a5.043,5.043,0,0,0-3.052-.039.4.4,0,0,0-.052.734,1.278,1.278,0,0,0,.775.113s1.007.039,1.354.049l.7.695a3.656,3.656,0,0,0-3.056,1.362s-.943.416-.768.962.953.354.953.354a6.583,6.583,0,0,0,1.45-.706,3.628,3.628,0,0,1,1.269-.131,2.912,2.912,0,0,1,1.1.393,4.5,4.5,0,0,0-1.285.137,6.239,6.239,0,0,0-1.69.836c-.485.308-.19.93.127.907a7.649,7.649,0,0,0,1.08-.409,2.476,2.476,0,0,1,1.979-.181c.265.088,1.085,1.438,2.034,1.914a3.177,3.177,0,0,0,2.265.039,3.891,3.891,0,0,1,1.455.248C230.042,73.835,232.774,74.71,232.774,74.71Z" transform="translate(-218.091 -65.907)" fill="#080909"></path><path d="M232.917,74.839l-.169-.054c-.027-.009-2.743-.877-3.842-1.19a4,4,0,0,0-1.421-.246,3.2,3.2,0,0,1-2.319-.046,5.645,5.645,0,0,1-1.552-1.425,2.522,2.522,0,0,0-.464-.485,2.083,2.083,0,0,0-1.658.081c-.093.038-.182.075-.269.1a3.6,3.6,0,0,0-.534.22,1.607,1.607,0,0,1-.562.192.466.466,0,0,1-.441-.356.582.582,0,0,1,.262-.7,6.274,6.274,0,0,1,1.71-.85,4.607,4.607,0,0,1,.979-.137,2.7,2.7,0,0,0-.784-.232,3.563,3.563,0,0,0-1.236.128,6.417,6.417,0,0,1-1.455.708c-.292.068-.891.075-1.047-.412-.182-.569.662-.99.8-1.054a3.886,3.886,0,0,1,2.9-1.384l-.526-.524-1.322-.048a1.328,1.328,0,0,1-.809-.121.479.479,0,0,1,.065-.884,5.138,5.138,0,0,1,3.111.043,36.294,36.294,0,0,1,3.13,2.352l.349.281c.676.539,2.322,1.513,2.538,1.639l.76-.083c2.179.735,3.677,4.173,3.74,4.321Zm-5.455-1.649a4.191,4.191,0,0,1,1.488.249c.939.265,3.053.938,3.673,1.135-.33-.7-1.713-3.427-3.55-4.058l-.762.087-.024-.014c-.018-.011-1.85-1.086-2.58-1.666l-.349-.281a36.476,36.476,0,0,0-3.1-2.33,4.933,4.933,0,0,0-2.992-.032.305.305,0,0,0-.217.274.309.309,0,0,0,.175.305,1.212,1.212,0,0,0,.728.106c.018,0,1.022.037,1.37.047h.032l.891.9-.24-.033a3.617,3.617,0,0,0-2.982,1.334l-.027.021c-.009,0-.874.393-.724.864s.849.3.856.3a6.648,6.648,0,0,0,1.426-.7,3.6,3.6,0,0,1,1.319-.142,2.943,2.943,0,0,1,1.134.406l.26.164-.308-.019a4.464,4.464,0,0,0-1.259.137,6.127,6.127,0,0,0-1.667.829.424.424,0,0,0-.193.51c.05.149.168.254.275.246a1.527,1.527,0,0,0,.5-.177,3.809,3.809,0,0,1,.557-.228c.08-.024.164-.059.254-.1a2.249,2.249,0,0,1,1.771-.085c.115.038.264.209.538.535a5.523,5.523,0,0,0,1.507,1.383,3.115,3.115,0,0,0,2.2.036Z" transform="translate(-218.089 -65.905)" fill="#fff"></path></g><g transform="translate(3.019 14.573)"><path d="M223.957,69.111a4.5,4.5,0,0,0-2.848-.45c-1.306.382-2.09.639-2.1.641l-.053-.16c.008,0,.8-.26,2.1-.643a4.606,4.606,0,0,1,2.975.463Z" transform="translate(-218.957 -68.426)" fill="#fff"></path></g><g transform="translate(5.266 13.939)"><path d="M224.093,68.471a4.991,4.991,0,0,0-1.5-.485A4.04,4.04,0,0,0,221.3,68l-.038-.164a4.155,4.155,0,0,1,1.344-.021,5.064,5.064,0,0,1,1.563.5Z" transform="translate(-221.267 -67.774)" fill="#fff"></path></g></g><g transform="translate(9.347 54.255)"><rect width="62.426" height="9.168" rx="0.529" transform="translate(0 20.132)" fill="#080909"></rect><g transform="translate(1.817)"><g transform="translate(4.539 0.652)"><rect width="1.298" height="4.037" fill="#fff"></rect></g><g transform="translate(32.1 0.83)"><rect width="1.298" height="4.807" transform="translate(0 0.918) rotate(-45)" fill="#fff"></rect></g><g transform="translate(20.909 2.989)"><rect width="0.807" height="16.093" fill="#fff"></rect></g><g transform="translate(18.912 2.989)"><rect width="0.807" height="16.093" fill="#fff"></rect></g><g transform="translate(0 4.132)"><path d="M200.128,114.841h-1.3v-13.65h-5.307a2.474,2.474,0,0,0-2.471,2.47v11.181h-1.3V103.66a3.775,3.775,0,0,1,3.77-3.769h6.606Z" transform="translate(-189.753 -99.891)" fill="#fff"></path></g><g transform="translate(30.144 4.132)"><path d="M231.115,114.841h-1.3v-13.65H224.24a2.2,2.2,0,0,0-2.2,2.2v11.45h-1.3V103.391a3.5,3.5,0,0,1,3.5-3.5h6.875Z" transform="translate(-220.74 -99.891)" fill="#fff"></path></g><g transform="translate(12.902)"><path d="M210.407,110.427a7.392,7.392,0,1,1,7.391-7.392,7.392,7.392,0,0,1-7.391,7.392Zm0-13.482a6.091,6.091,0,1,0,6.091,6.091,6.091,6.091,0,0,0-6.091-6.091Z" transform="translate(-203.016 -95.644)" fill="#fff"></path></g><g transform="translate(48.722 5.309)"><rect width="0.807" height="12.789" fill="#fff"></rect></g><g transform="translate(50.666 5.333)"><rect width="0.807" height="12.789" fill="#fff"></rect></g><g transform="translate(57.457 8.109)"><rect width="2.575" height="1.298" fill="#fff"></rect></g><g transform="translate(42.002 2.969)"><path d="M240.994,114.829a8.067,8.067,0,1,1,8.071-8.068,8.066,8.066,0,0,1-8.071,8.068Zm0-14.836a6.769,6.769,0,1,0,6.77,6.769,6.769,6.769,0,0,0-6.77-6.769Z" transform="translate(-232.931 -98.696)" fill="#fff"></path></g></g><g transform="translate(9.236 21.365)"><path d="M201.913,121.89l1.07.13a2.616,2.616,0,0,1-.938,1.456,3.178,3.178,0,0,1-3.875-.308,3.229,3.229,0,0,1-.785-2.315,3.377,3.377,0,0,1,.795-2.393,2.688,2.688,0,0,1,2.058-.851,2.615,2.615,0,0,1,2,.835,3.314,3.314,0,0,1,.776,2.347c0,.061,0,.153-.006.275h-4.555a2.346,2.346,0,0,0,.569,1.542,1.7,1.7,0,0,0,1.277.535,1.586,1.586,0,0,0,.972-.3A1.989,1.989,0,0,0,201.913,121.89Zm-3.4-1.674h3.411a2.072,2.072,0,0,0-.393-1.157,1.588,1.588,0,0,0-1.282-.6,1.647,1.647,0,0,0-1.2.478,1.89,1.89,0,0,0-.534,1.275Z" transform="translate(-197.379 -117.607)" fill="#fff"></path></g><g transform="translate(37.286 21.365)"><path d="M226.215,122.032l1.023-.161a1.434,1.434,0,0,0,.481.944,1.665,1.665,0,0,0,1.1.327,1.616,1.616,0,0,0,1.058-.29.87.87,0,0,0,.345-.682.63.63,0,0,0-.305-.552,4.493,4.493,0,0,0-1.058-.351,9.554,9.554,0,0,1-1.578-.5,1.5,1.5,0,0,1-.895-1.4,1.576,1.576,0,0,1,.187-.756,1.664,1.664,0,0,1,.51-.578,2.111,2.111,0,0,1,.659-.3,3.126,3.126,0,0,1,.894-.125,3.534,3.534,0,0,1,1.263.208,1.717,1.717,0,0,1,.8.56,2.19,2.19,0,0,1,.357.947l-1.013.137a1.106,1.106,0,0,0-.4-.736,1.46,1.46,0,0,0-.935-.262,1.686,1.686,0,0,0-1.018.236.686.686,0,0,0-.3.552.57.57,0,0,0,.126.363.905.905,0,0,0,.4.276q.153.057.915.262a12.6,12.6,0,0,1,1.532.481,1.549,1.549,0,0,1,.682.543,1.513,1.513,0,0,1,.247.886,1.736,1.736,0,0,1-.3.975,1.944,1.944,0,0,1-.872.707,3.168,3.168,0,0,1-1.289.25,2.872,2.872,0,0,1-1.815-.494,2.3,2.3,0,0,1-.8-1.466Z" transform="translate(-226.215 -117.607)" fill="#fff"></path></g><g transform="translate(0.892 21.366)"><path d="M188.8,122.032l1.024-.161a1.426,1.426,0,0,0,.481.944,1.662,1.662,0,0,0,1.1.327,1.616,1.616,0,0,0,1.058-.29.87.87,0,0,0,.345-.682.628.628,0,0,0-.305-.552,4.493,4.493,0,0,0-1.058-.351,9.552,9.552,0,0,1-1.578-.5,1.506,1.506,0,0,1-.895-1.4,1.576,1.576,0,0,1,.187-.756,1.685,1.685,0,0,1,.51-.579,2.13,2.13,0,0,1,.659-.3,3.13,3.13,0,0,1,.894-.124,3.511,3.511,0,0,1,1.263.207,1.717,1.717,0,0,1,.8.56,2.195,2.195,0,0,1,.357.947l-1.013.137a1.106,1.106,0,0,0-.4-.736,1.465,1.465,0,0,0-.934-.262,1.7,1.7,0,0,0-1.019.236.685.685,0,0,0-.305.552.571.571,0,0,0,.127.363.908.908,0,0,0,.4.276q.155.057.915.262a12.611,12.611,0,0,1,1.533.481,1.546,1.546,0,0,1,.681.543,1.521,1.521,0,0,1,.248.886,1.744,1.744,0,0,1-.3.975,1.953,1.953,0,0,1-.873.707,3.167,3.167,0,0,1-1.288.25,2.87,2.87,0,0,1-1.815-.494,2.3,2.3,0,0,1-.8-1.466Z" transform="translate(-188.802 -117.608)" fill="#fff"></path></g><g transform="translate(45.409 21.365)"><path d="M239.1,121.89l1.07.13a2.609,2.609,0,0,1-.937,1.456,3.178,3.178,0,0,1-3.875-.308,3.225,3.225,0,0,1-.785-2.315,3.376,3.376,0,0,1,.794-2.393,2.69,2.69,0,0,1,2.059-.851,2.615,2.615,0,0,1,2,.835,3.315,3.315,0,0,1,.776,2.347c0,.061,0,.153-.006.275h-4.556a2.346,2.346,0,0,0,.57,1.542,1.694,1.694,0,0,0,1.277.535,1.588,1.588,0,0,0,.972-.3A1.981,1.981,0,0,0,239.1,121.89Zm-3.4-1.674h3.411a2.071,2.071,0,0,0-.392-1.157,1.59,1.59,0,0,0-1.283-.6,1.645,1.645,0,0,0-1.2.478,1.891,1.891,0,0,0-.535,1.275Z" transform="translate(-234.565 -117.607)" fill="#fff"></path></g><path d="M208.464,117.493h.034l-.024,0C208.463,117.488,208.459,117.489,208.464,117.493Z" transform="translate(-188.446 -96.239)" fill="#560410"></path><g transform="translate(30.87 23.453)"><path d="M219.62,120.859v-1.105l.959.554.961.554-.961.554-.959.554Z" transform="translate(-219.62 -119.754)" fill="#fff"></path></g><g transform="translate(28.391 21.333)"><path d="M220.176,123.785a3.106,3.106,0,1,1,3.106-3.106h0A3.107,3.107,0,0,1,220.176,123.785Zm0-5.4a2.3,2.3,0,1,0,2.3,2.3,2.3,2.3,0,0,0-2.3-2.3Z" transform="translate(-217.071 -117.574)" fill="#fff"></path></g><g transform="translate(33.935 21.314)"><rect width="0.863" height="6.247" fill="#fff"></rect></g><g transform="translate(17.565 21.497)"><g transform="translate(3.832 0.006)"><path d="M213.424,117.75l-1.047,3.532-.351,1.177-.3-1.167-.915-3.543h-.925l1.6,6.109h1.038l1.911-6.109Z" transform="translate(-209.881 -117.749)" fill="#fff"></path></g><g transform="translate(2.884)"><path d="M211.209,123.858h-.7l-1.605-6.115.695.006Z" transform="translate(-208.907 -117.743)" fill="#fff"></path></g><g transform="translate(0 0.006)"><path d="M209.132,119.6l-.469,1.726q-.295,1.163-.317,1.26l-.362-1.311-.972-3.526h-1.07l1.87,6.109h1.081l.679-2.581Z" transform="translate(-205.942 -117.749)" fill="#fff"></path></g></g><g transform="translate(53.388 21.497)"><g transform="translate(3.829 0.006)"><path d="M250.25,117.75l-1.047,3.532-.35,1.177-.3-1.167-.916-3.543H246.7l1.6,6.109h1.039l1.911-6.109Z" transform="translate(-246.704 -117.749)" fill="#fff"></path></g><g transform="translate(2.886)"><path d="M248.034,123.858h-.694l-1.605-6.115.695.006Z" transform="translate(-245.735 -117.743)" fill="#fff"></path></g><g transform="translate(0 0.006)"><path d="M245.961,119.6l-.469,1.726q-.295,1.163-.317,1.26l-.362-1.311-.973-3.526h-1.072l1.871,6.109h1.081l.679-2.581Z" transform="translate(-242.768 -117.749)" fill="#fff"></path></g></g></g></g></svg>